<svg width="40" height="40" viewBox="0 0 40 40" fill="none" xmlns="http://www.w3.org/2000/svg"><path d="M20 40C31.0457 40 40 31.0457 40 20C40 8.9543 31.0457 0 20 0C8.9543 0 0 8.9543 0 20C0 31.0457 8.9543 40 20 40Z" fill="#0052FF"/><path d="M20.0001 6.5625C12.5704 6.5625 6.5625 12.5704 6.5625 20C6.5625 27.4296 12.5704 33.4375 20.0001 33.4375C27.4297 33.4375 33.4375 27.4296 33.4375 20C33.4375 12.5704 27.4297 6.5625 20.0001 6.5625ZM25.7824 20.5468H20.5469V25.7823C20.5469 26.0825 20.3002 26.3291 20 26.3291C19.6999 26.3291 19.4532 26.0825 19.4532 25.7823V20.5468H14.2177C13.9175 20.5468 13.6709 20.3001 13.6709 20C13.6709 19.6999 13.9175 19.4532 14.2177 19.4532H19.4532V14.2177C19.4532 13.9175 19.6999 13.6709 20 13.6709C20.3002 13.6709 20.5469 13.9175 20.5469 14.2177V19.4532H25.7824C26.0825 19.4532 26.3292 19.6999 26.3292 20C26.3292 20.3001 26.0825 20.5468 25.7824 20.5468Z" fill="white"/></svg>