<svg width="40" height="40" viewBox="0 0 40 40" fill="none" xmlns="http://www.w3.org/2000/svg"><rect width="40" height="40" rx="20" fill="#3B99FC"/><path d="M10.1875 13.8125C16.375 7.75 26.5625 7.75 32.75 13.8125L33.4375 14.5C33.625 14.6875 33.625 15.0625 33.4375 15.25L31.0625 17.625C30.9688 17.7188 30.7812 17.7188 30.6875 17.625L29.75 16.6875C25.125 12.1875 17.8125 12.1875 13.1875 16.6875L12.1875 17.6875C12.0938 17.7812 11.9062 17.7812 11.8125 17.6875L9.4375 15.3125C9.25 15.125 9.25 14.75 9.4375 14.5625L10.1875 13.8125ZM36.5625 17.625L38.6562 19.7188C38.8438 19.9062 38.8438 20.2812 38.6562 20.4688L28.5938 30.5312C28.4062 30.7188 28.125 30.7188 27.9375 30.5312L20.8125 23.4062C20.7656 23.3594 20.6875 23.3594 20.6406 23.4062L13.5156 30.5312C13.3281 30.7188 13.0469 30.7188 12.8594 30.5312L2.78125 20.4688C2.59375 20.2812 2.59375 19.9062 2.78125 19.7188L4.875 17.625C5.0625 17.4375 5.34375 17.4375 5.53125 17.625L12.6562 24.75C12.7031 24.7969 12.7812 24.7969 12.8281 24.75L19.9531 17.625C20.1406 17.4375 20.4219 17.4375 20.6094 17.625L27.7344 24.75C27.7812 24.7969 27.8594 24.7969 27.9062 24.75L35.0312 17.625C35.2188 17.4375 35.5 17.4375 35.6875 17.625H36.5625Z" fill="white"/></svg>